<?xml version="1.0" encoding="utf-8"?> <svg xmlns="http://www.w3.org/2000/svg" style="margin: auto; background: none; display: block; shape-rendering: auto;" width="271" height="250" preserveAspectRatio="xMidYMid"> <style type="text/css"> text { text-anchor: middle; font-size: 67px; opacity: 0; } </style> <g style="transform-origin: 135.5px 125px; transform: scale(1.45652);"> <g transform="translate(135.5,125)"> <g transform="translate(0,0)"><g class="path" style="transform: matrix(0.01, 0, 0, 0.01, 0, 0); transform-origin: -72.15px 2.05485px; animation: 1.5625s linear 0s 1 normal forwards running bounce-in-b70062e8-ab80-4cc4-ae2e-24dd5ece363e;"><path d="M1.29-9.61L1.29-9.61Q1.29-15.50 4.46-19.60L4.46-19.60L4.46-19.60Q7.64-23.69 11.89-23.69L11.89-23.69L11.89-23.69Q16.15-23.69 18.52-20.93L18.52-20.93L18.52-20.93Q20.88-18.17 20.88-13.62L20.88-13.62L20.88-13.62Q20.88-7.54 17.82-3.52L17.82-3.52L17.82-3.52Q14.77 0.51 10.12 0.51L10.12 0.51L10.12 0.51Q6.30 0.51 3.79-2.37L3.79-2.37L3.79-2.37Q1.29-5.24 1.29-9.61L1.29-9.61zM15.73-11.22L15.73-11.22L15.73-11.22Q15.73-17.89 11.18-17.89L11.18-17.89L11.18-17.89Q6.44-17.89 6.44-11.64L6.44-11.64L6.44-11.64Q6.44-8.37 7.77-6.53L7.77-6.53L7.77-6.53Q9.11-4.69 11.29-4.69L11.29-4.69L11.29-4.69Q13.48-4.69 14.61-6.37L14.61-6.37L14.61-6.37Q15.73-8.05 15.73-11.22" fill="#774023" stroke="none" stroke-width="none" transform="translate(-83.23497295379639,13.644850010871888)" style="fill: rgb(119, 64, 35);"></path></g><g class="path" style="transform: matrix(0.01, 0, 0, 0.01, 0, 0); transform-origin: -44.16px 2.00985px; animation: 1.5625s linear 0.128906s 1 normal forwards running bounce-in-b70062e8-ab80-4cc4-ae2e-24dd5ece363e;"><path d="M43.75-13.25L45.36-5.75L45.95-5.75L47.43-12.05L49.82-23.41L55.43-22.72L52.07-11.32L49.27-0.55L41.72 0.14L39.19-11.04L38.96-11.78L35.88-0.55L28.57 0.14L25.90-11.04L22.72-22.22L28.75-23.37L30.64-13.25L32.29-5.75L32.89-5.75L36.85-18.86L35.88-22.22L41.81-23.37L43.75-13.25" fill="#774023" stroke="none" stroke-width="none" transform="translate(-83.23497295379639,13.644850010871888)" style="fill: rgb(216, 140, 81);"></path></g><g class="path" style="transform: matrix(0.01, 0, 0, 0.01, 0, 0); transform-origin: -21.615px -4.15515px; animation: 1.5625s linear 0.257812s 1 normal forwards running bounce-in-b70062e8-ab80-4cc4-ae2e-24dd5ece363e;"><path d="M58.47-34.45L64.77-35.60L64.17-11.96L64.68-1.15L58.47 0L59.02-11.18L58.47-34.45" fill="#774023" stroke="none" stroke-width="none" transform="translate(-83.23497295379639,13.644850010871888)" style="fill: rgb(243, 231, 201);"></path></g><g class="path" style="transform: matrix(0.01, 0, 0, 0.01, 0, 0); transform-origin: -4.57498px -3.90015px; animation: 1.5625s linear 0.386719s 1 normal forwards running bounce-in-b70062e8-ab80-4cc4-ae2e-24dd5ece363e;"><path d="M82.25-4.51L82.25-4.51L82.25-4.51Q78.66 0 76.04 0L76.04 0L76.04 0Q72.77 0 70.68-2.67L70.68-2.67L70.68-2.67Q68.59-5.34 68.59-9.52L68.59-9.52L68.59-9.52Q68.59-15.27 71.78-19.23L71.78-19.23L71.78-19.23Q74.98-23.18 79.63-23.18L79.63-23.18L82.20-22.82L82.20-23.69L81.65-34.45L87.95-35.60L87.35-11.96L87.35-7.91L87.35-7.91Q87.35-5.15 88.73-1.56L88.73-1.56L83.77 0.51L83.77 0.51Q82.43-2.25 82.25-4.51zM73.74-11.91L73.74-11.91L73.74-11.91Q73.74-8.97 74.82-7.31L74.82-7.31L74.82-7.31Q75.90-5.66 77.95-5.66L77.95-5.66L77.95-5.66Q79.99-5.66 82.20-7.31L82.20-7.31L82.20-17.25L82.20-17.25Q79.44-17.80 78.11-17.80L78.11-17.80L78.11-17.80Q76.04-17.80 74.89-16.33L74.89-16.33L74.89-16.33Q73.74-14.86 73.74-11.91" fill="#774023" stroke="none" stroke-width="none" transform="translate(-83.23497295379639,13.644850010871888)" style="fill: rgb(119, 64, 35);"></path></g><g class="path" style="transform: matrix(0.01, 0, 0, 0.01, 0, 0); transform-origin: 17.965px 1.86985px; animation: 1.5625s linear 0.515625s 1 normal forwards running bounce-in-b70062e8-ab80-4cc4-ae2e-24dd5ece363e;"><path d="M97.80 0L97.80 0Q95.08 0 93.36-1.72L93.36-1.72L93.36-1.72Q91.63-3.45 91.63-6.37L91.63-6.37L91.63-6.37Q91.63-9.29 94.30-11.43L94.30-11.43L94.30-11.43Q96.97-13.57 100.79-13.57L100.79-13.57L103.91-13.57L103.91-14.35L103.91-14.35Q103.91-16.61 102.99-17.43L102.99-17.43L102.99-17.43Q102.07-18.26 99.54-18.26L99.54-18.26L99.54-18.26Q98.49-18.26 97.04-17.82L97.04-17.82L97.04-17.82Q95.59-17.39 93.79-16.47L93.79-16.47L92.46-20.10L92.46-20.10Q94.44-21.48 97.27-22.59L97.27-22.59L97.27-22.59Q100.10-23.69 101.94-23.69L101.94-23.69L101.94-23.69Q109.16-23.69 109.16-16.70L109.16-16.70L109.16-7.68L109.16-7.68Q109.16-5.11 110.77-1.93L110.77-1.93L105.89 0.14L105.89 0.14Q104.74-2.07 104.19-3.82L104.19-3.82L104.19-3.82Q101.66 0 97.80 0L97.80 0zM99.73-4.69L99.73-4.69L99.73-4.69Q101.57-4.69 103.91-6.58L103.91-6.58L103.91-9.66L103.91-9.66Q101.48-10.21 99.96-10.21L99.96-10.21L99.96-10.21Q97.06-10.21 97.06-7.64L97.06-7.64L97.06-7.64Q97.06-6.30 97.80-5.50L97.80-5.50L97.80-5.50Q98.53-4.69 99.73-4.69" fill="#774023" stroke="none" stroke-width="none" transform="translate(-83.23497295379639,13.644850010871888)" style="fill: rgb(216, 140, 81);"></path></g><g class="path" style="transform: matrix(0.01, 0, 0, 0.01, 0, 0); transform-origin: 38.205px 2.05485px; animation: 1.5625s linear 0.644531s 1 normal forwards running bounce-in-b70062e8-ab80-4cc4-ae2e-24dd5ece363e;"><path d="M122.68-17.71L122.68-17.71L122.68-17.71Q120.66-17.71 119.55-16.26L119.55-16.26L119.55-16.26Q118.45-14.81 118.45-11.82L118.45-11.82L118.45-11.82Q118.45-8.83 119.58-7.01L119.58-7.01L119.58-7.01Q120.70-5.20 122.87-5.20L122.87-5.20L122.87-5.20Q123.97-5.20 125.03-5.89L125.03-5.89L125.03-5.89Q126.09-6.58 126.64-7.27L126.64-7.27L127.14-8.00L129.44-5.61L129.44-5.61Q129.31-5.38 129.10-4.97L129.10-4.97L129.10-4.97Q128.89-4.55 128.09-3.50L128.09-3.50L128.09-3.50Q127.28-2.44 126.39-1.63L126.39-1.63L126.39-1.63Q125.49-0.83 124.06-0.16L124.06-0.16L124.06-0.16Q122.64 0.51 121.07 0.51L121.07 0.51L121.07 0.51Q117.62 0.51 115.46-2.30L115.46-2.30L115.46-2.30Q113.30-5.11 113.30-9.61L113.30-9.61L113.30-9.61Q113.30-15.23 116.56-19.46L116.56-19.46L116.56-19.46Q119.83-23.69 124.20-23.69L124.20-23.69L124.20-23.69Q125.53-23.69 126.87-23.30L126.87-23.30L126.87-23.30Q128.20-22.91 129.58-22.08L129.58-22.08L126.36-16.42L126.36-16.42Q124.71-17.71 122.68-17.71" fill="#774023" stroke="none" stroke-width="none" transform="translate(-83.23497295379639,13.644850010871888)" style="fill: rgb(243, 231, 201);"></path></g><g class="path" style="transform: matrix(0.01, 0, 0, 0.01, 0, 0); transform-origin: 55.915px 2.05485px; animation: 1.5625s linear 0.773438s 1 normal forwards running bounce-in-b70062e8-ab80-4cc4-ae2e-24dd5ece363e;"><path d="M140.39-17.71L140.39-17.71L140.39-17.71Q138.37-17.71 137.26-16.26L137.26-16.26L137.26-16.26Q136.16-14.81 136.16-11.82L136.16-11.82L136.16-11.82Q136.16-8.83 137.29-7.01L137.29-7.01L137.29-7.01Q138.41-5.20 140.58-5.20L140.58-5.20L140.58-5.20Q141.68-5.20 142.74-5.89L142.74-5.89L142.74-5.89Q143.80-6.58 144.35-7.27L144.35-7.27L144.85-8.00L147.15-5.61L147.15-5.61Q147.02-5.38 146.81-4.97L146.81-4.97L146.81-4.97Q146.60-4.55 145.80-3.50L145.80-3.50L145.80-3.50Q144.99-2.44 144.09-1.63L144.09-1.63L144.09-1.63Q143.20-0.83 141.77-0.16L141.77-0.16L141.77-0.16Q140.35 0.51 138.78 0.51L138.78 0.51L138.78 0.51Q135.33 0.51 133.17-2.30L133.17-2.30L133.17-2.30Q131.01-5.11 131.01-9.61L131.01-9.61L131.01-9.61Q131.01-15.23 134.27-19.46L134.27-19.46L134.27-19.46Q137.54-23.69 141.91-23.69L141.91-23.69L141.91-23.69Q143.24-23.69 144.58-23.30L144.58-23.30L144.58-23.30Q145.91-22.91 147.29-22.08L147.29-22.08L144.07-16.42L144.07-16.42Q142.42-17.71 140.39-17.71" fill="#774023" stroke="none" stroke-width="none" transform="translate(-83.23497295379639,13.644850010871888)" style="fill: rgb(119, 64, 35);"></path></g><g class="path" style="transform: matrix(0.01, 0, 0, 0.01, 0, 0); transform-origin: 74.96px 1.86985px; animation: 1.5625s linear 0.902344s 1 normal forwards running bounce-in-b70062e8-ab80-4cc4-ae2e-24dd5ece363e;"><path d="M154.79 0L154.79 0Q152.08 0 150.35-1.72L150.35-1.72L150.35-1.72Q148.63-3.45 148.63-6.37L148.63-6.37L148.63-6.37Q148.63-9.29 151.29-11.43L151.29-11.43L151.29-11.43Q153.96-13.57 157.78-13.57L157.78-13.57L160.91-13.57L160.91-14.35L160.91-14.35Q160.91-16.61 159.99-17.43L159.99-17.43L159.99-17.43Q159.07-18.26 156.54-18.26L156.54-18.26L156.54-18.26Q155.48-18.26 154.03-17.82L154.03-17.82L154.03-17.82Q152.58-17.39 150.79-16.47L150.79-16.47L149.45-20.10L149.45-20.10Q151.43-21.48 154.26-22.59L154.26-22.59L154.26-22.59Q157.09-23.69 158.93-23.69L158.93-23.69L158.93-23.69Q166.15-23.69 166.15-16.70L166.15-16.70L166.15-7.68L166.15-7.68Q166.15-5.11 167.76-1.93L167.76-1.93L162.89 0.14L162.89 0.14Q161.74-2.07 161.18-3.82L161.18-3.82L161.18-3.82Q158.65 0 154.79 0L154.79 0zM156.72-4.69L156.72-4.69L156.72-4.69Q158.56-4.69 160.91-6.58L160.91-6.58L160.91-9.66L160.91-9.66Q158.47-10.21 156.95-10.21L156.95-10.21L156.95-10.21Q154.05-10.21 154.05-7.64L154.05-7.64L154.05-7.64Q154.05-6.30 154.79-5.50L154.79-5.50L154.79-5.50Q155.53-4.69 156.72-4.69" fill="#774023" stroke="none" stroke-width="none" transform="translate(-83.23497295379639,13.644850010871888)" style="fill: rgb(216, 140, 81);"></path></g></g> </g> </g> <style id="bounce-in-b70062e8-ab80-4cc4-ae2e-24dd5ece363e" data-anikit="" class="native-dark-class-modified">@keyframes bounce-in-b70062e8-ab80-4cc4-ae2e-24dd5ece363e { 0% { animation-timing-function: cubic-bezier(0.0383,0.3388,0.0421,0.6652); transform: matrix(0.01,0,0,0.01,0,0); opacity: 1; } 4.7% { animation-timing-function: cubic-bezier(0.3296,0.3336,0.5772,0.6672); transform: matrix(0.556,0,0,0.556,0,0); opacity: 1; } 8.4% { animation-timing-function: cubic-bezier(0.0781,0.1617,0.0874,0.9301); transform: matrix(0.979,0,0,0.979,0,0); opacity: 1; } 12.4% { animation-timing-function: cubic-bezier(0.8341,0.1496,0.8634,0.7673); transform: matrix(1.153,0,0,1.153,0,0); opacity: 1; } 16.3% { animation-timing-function: cubic-bezier(0.3264,0.3332,0.5758,0.6695); transform: matrix(1.008,0,0,1.008,0,0); opacity: 1; } 21.2% { animation-timing-function: cubic-bezier(0.0921,0.1883,0.3277,1); transform: matrix(0.704,0,0,0.704,0,0); opacity: 1; } 24.5% { animation-timing-function: cubic-bezier(0.6905,0.0944,0.8759,0.7624); transform: matrix(0.626,0,0,0.626,0,0); opacity: 1; } 27.7% { animation-timing-function: cubic-bezier(0.3688,0.332,0.624,0.6684); transform: matrix(0.704,0,0,0.704,0,0); opacity: 1; } 32.6% { animation-timing-function: cubic-bezier(0.1368,0.2364,0.2451,0.9049); transform: matrix(0.958,0,0,0.958,0,0); opacity: 1; } 37.4% { animation-timing-function: cubic-bezier(0.5936,0.0846,0.3495,1); transform: matrix(1.085,0,0,1.085,0,0); opacity: 1; } 49.5% { animation-timing-function: cubic-bezier(0.5522,0.0981,0.3807,1); transform: matrix(0.802,0,0,0.802,0,0); opacity: 1; } 62.4% { animation-timing-function: cubic-bezier(0.4497,0.1349,0.4911,1); transform: matrix(1.044,0,0,1.044,0,0); opacity: 1; } 74.1% { animation-timing-function: cubic-bezier(0.429,0,0.5239,1); transform: matrix(0.914,0,0,0.914,0,0); opacity: 1; } 87% { animation-timing-function: cubic-bezier(0.3501,0,0.6422,1); transform: matrix(1.013,0,0,1.013,0,0); opacity: 1; } 95.8% { animation-timing-function: cubic-bezier(0.3653,0,0.6776,1); transform: matrix(0.992,0,0,0.992,0,0); opacity: 1; } 100% { transform: matrix(1,0,0,1,0,0); opacity: 1; } }</style></svg>